<?xml version="1.0" standalone="no"?>
<!DOCTYPE svg PUBLIC "-//W3C//DTD SVG 20010904//EN"
 "http://www.w3.org/TR/2001/REC-SVG-20010904/DTD/svg10.dtd">
<svg version="1.0" xmlns="http://www.w3.org/2000/svg"
 width="217.000000pt" height="217.000000pt" viewBox="0 0 217.000000 217.000000"
 preserveAspectRatio="xMidYMid meet">
<metadata>
Created by potrace 1.14, written by Peter Selinger 2001-2017
</metadata>
<g transform="translate(0.000000,217.000000) scale(0.100000,-0.100000)"
fill="#000000" stroke="none">
<path d="M227 1454 c-1 -1 -31 -4 -67 -8 -135 -12 -150 -19 -150 -64 0 -65 9
-82 41 -82 17 0 31 -6 34 -12 2 -7 6 -71 10 -142 3 -71 8 -157 11 -190 l6 -62
-33 -2 c-45 -4 -49 -8 -49 -53 0 -47 22 -94 51 -110 25 -13 96 10 124 41 18
20 18 20 50 0 47 -29 134 -49 169 -39 68 20 107 85 150 252 51 196 57 336 17
401 -34 54 -83 69 -234 70 -70 1 -129 1 -130 0z m193 -189 c6 -8 10 -18 7 -22
-3 -4 -8 -55 -11 -113 -6 -96 -10 -131 -21 -199 -6 -32 -21 -41 -76 -41 l-46
0 0 195 -1 195 68 0 c47 0 71 -4 80 -15z"/>
<path d="M822 1448 c-128 -11 -128 -11 -123 -93 2 -40 9 -44 69 -52 42 -5 52
-9 48 -22 -2 -9 -25 -105 -51 -214 l-47 -198 -31 3 c-25 2 -34 -2 -44 -22 -7
-14 -13 -39 -13 -56 0 -27 6 -35 36 -49 77 -36 161 -32 189 11 9 14 24 57 34
97 l19 72 68 1 c38 0 74 -1 80 -3 7 -3 12 -37 13 -91 1 -48 5 -90 10 -95 13
-13 78 -20 126 -13 33 5 50 14 62 33 16 24 16 31 -2 116 -10 51 -27 125 -37
167 -11 41 -21 82 -23 90 -20 95 -85 293 -102 311 -11 14 -33 16 -111 15 -53
0 -130 -4 -170 -8z m189 -238 c10 -41 20 -91 23 -112 l6 -38 -50 0 -51 0 5 33
c2 17 10 69 17 115 7 52 16 81 23 79 6 -2 18 -37 27 -77z"/>
<path d="M1417 1445 c-61 -11 -77 -24 -77 -65 0 -35 11 -48 45 -53 28 -4 30
-7 29 -43 -1 -21 -4 -66 -8 -99 -7 -63 -9 -78 -21 -190 -4 -38 -9 -77 -10 -85
-2 -8 -4 -18 -4 -23 -1 -4 -12 -5 -26 -1 -25 6 -30 -2 -39 -62 -8 -47 48 -94
112 -94 38 0 89 37 101 73 21 67 28 308 12 412 -13 87 -13 91 -2 80 5 -6 19
-48 31 -95 12 -47 37 -143 57 -214 31 -113 34 -134 24 -166 -17 -56 -14 -65
23 -83 41 -19 150 -17 184 4 26 16 28 41 8 97 -14 38 -13 45 25 163 22 67 45
162 51 211 7 48 16 88 20 88 4 0 8 -46 8 -102 0 -57 6 -159 13 -228 9 -81 10
-142 4 -174 -10 -57 -4 -66 51 -73 149 -20 164 38 101 411 -25 148 -59 297
-71 312 -9 13 -171 12 -245 0 -50 -9 -65 -25 -59 -63 2 -15 5 -33 5 -40 1 -6
19 -14 41 -18 31 -5 40 -11 36 -23 -5 -20 -18 -78 -42 -180 -9 -40 -18 -71
-21 -68 -2 2 -26 91 -53 196 -27 106 -52 195 -55 199 -10 10 -186 8 -248 -4z"/>
</g>
</svg>
